<svg width="28" height="28" viewBox="0 0 28 28" fill="none" xmlns="http://www.w3.org/2000/svg">
<path d="M20.4799 7.60119C20.4799 11.2955 17.4813 14.3022 13.7869 14.3102C10.0846 14.3182 7.06197 11.2955 7.06996 7.59319C7.07796 3.89885 10.0846 0.900208 13.7789 0.900208C17.4733 0.900208 20.4799 3.89886 20.4799 7.60119ZM18.5608 7.60119C18.5608 4.95438 16.4177 2.81135 13.7709 2.81135C11.1401 2.81135 8.99709 4.95438 8.9891 7.58519C8.9811 10.232 11.1321 12.383 13.7709 12.391C16.4177 12.399 18.5608 10.248 18.5608 7.60119Z" fill="white"/>
<path d="M7.54976 27.7121C5.52667 27.7121 3.50359 27.7121 1.4725 27.7121C0.736833 27.7121 0.361002 27.3363 0.368998 26.6086C0.376995 25.4411 0.313024 24.2817 0.536923 23.1222C1.23261 19.5078 4.41517 16.5971 8.08552 16.2773C9.62083 16.1413 11.1561 16.2453 12.6914 16.2213C12.9313 16.2133 13.1712 16.2213 13.4111 16.2213C14.0508 16.2213 14.4826 16.6051 14.4906 17.1729C14.4906 17.7406 14.0588 18.1324 13.4271 18.1404C11.9638 18.1404 10.4924 18.1404 9.02909 18.1404C5.80655 18.1484 3.15174 20.2915 2.44006 23.434C2.27214 24.1617 2.28014 24.8974 2.28813 25.633C2.28813 25.769 2.33611 25.809 2.46405 25.801C2.54402 25.793 2.62398 25.801 2.70395 25.801C6.36629 25.801 10.0206 25.801 13.683 25.801C14.2347 25.801 14.6426 26.1128 14.7305 26.5926C14.8345 27.1843 14.3867 27.7121 13.755 27.7121C12.4915 27.7201 11.2201 27.7121 9.95668 27.7121C9.14904 27.7121 8.3494 27.7121 7.54976 27.7121Z" fill="white"/>
<path d="M22.1672 16.5092C25.3418 16.5172 27.9086 19.084 27.9006 22.2586C27.8926 25.4172 25.3018 28.008 22.1432 28C18.9766 27.992 16.4018 25.4012 16.4098 22.2346C16.4098 19.068 18.9926 16.5012 22.1672 16.5092ZM22.1432 18.4203C20.0322 18.4283 18.3209 20.1395 18.3289 22.2506C18.3289 24.3536 20.0562 26.0809 22.1592 26.0809C24.2703 26.0809 25.9975 24.3456 25.9895 22.2266C25.9735 20.1235 24.2543 18.4203 22.1432 18.4203Z" fill="white"/>
<path d="M21.1996 23.4021C21.1996 23.0742 21.1916 22.7463 21.1996 22.4185C21.2156 21.8747 21.6234 21.4669 22.1512 21.4669C22.6709 21.4589 23.1027 21.8747 23.1107 22.4105C23.1267 23.0662 23.1187 23.7219 23.1107 24.3856C23.1027 24.9294 22.6869 25.3372 22.1592 25.3372C21.6234 25.3372 21.2076 24.9214 21.1996 24.3696C21.1916 24.0338 21.1996 23.7139 21.1996 23.4021Z" fill="white"/>
<path d="M22.1512 21.2031C21.6235 21.2031 21.1996 20.7792 21.1917 20.2595C21.1917 19.7237 21.6315 19.2839 22.1672 19.2919C22.687 19.2999 23.1108 19.7397 23.1108 20.2595C23.1028 20.7792 22.679 21.2031 22.1512 21.2031Z" fill="white"/>
</svg>
