<svg width="31" height="33" viewBox="0 0 31 33" fill="none" xmlns="http://www.w3.org/2000/svg">
<path d="M3.08503 31.9024C2.64183 31.701 2.2631 31.435 2.15835 30.9193C2.13417 30.7823 2.11806 30.6373 2.11806 30.5003C2.11806 29.1466 2.11 27.7847 2.11806 26.431C2.11806 26.2456 2.06971 26.157 1.89243 26.0684C1.32837 25.7783 1.02216 25.3028 1.00604 24.6663C0.997985 24.352 0.997985 24.0458 1.00604 23.7315C1.02216 22.821 1.61846 22.1683 2.52902 22.1038C2.77076 22.0877 2.84329 21.999 2.89163 21.7815C3.04474 21.016 3.2059 20.2504 3.38318 19.4849C3.59269 18.5985 3.98753 17.8088 4.72888 17.2206C5.22848 16.8258 5.79254 16.6324 6.42913 16.6324C7.50085 16.6324 8.58064 16.6324 9.65236 16.6243C9.76517 16.6243 9.97468 16.7129 9.98274 16.5437C9.99886 16.3261 10.1278 16.0602 9.86187 15.883C9.37839 15.5526 8.94325 15.1658 8.5484 14.7387C7.8957 14.0457 7.37193 13.2641 7.01737 12.3777C6.96096 12.2488 6.88844 12.1682 6.75951 12.1118C6.01011 11.8056 5.48633 11.2496 5.11566 10.5405C4.84169 10.0167 4.87392 9.44455 4.96256 8.88854C5.03508 8.38894 5.49439 8.08274 6.0504 8.07468C6.62252 8.05856 6.61447 8.05856 6.62252 7.48644C6.63058 6.81762 6.56612 6.14074 6.71116 5.47192C7.03349 4.00535 7.96822 3.08673 9.31392 2.53878C9.69265 2.38568 10.023 2.19228 10.3615 1.96666C11.9892 0.870758 13.7539 0.757945 15.5589 1.37036C17.8474 2.15199 19.0561 3.85225 19.4268 6.19715C19.5154 6.7451 19.5154 7.3011 19.4832 7.84905C19.4752 8.03439 19.5316 8.10691 19.7169 8.08274C19.8136 8.07468 19.9184 8.08274 20.015 8.08274C20.7403 8.0908 21.1674 8.52593 21.1754 9.25922C21.1835 10.613 20.5388 11.6202 19.3059 12.1279C19.177 12.1843 19.1206 12.2649 19.0723 12.3777C18.484 13.804 17.5332 14.9321 16.3003 15.8346C16.1149 15.9716 16.0102 16.3503 16.0988 16.5518C16.1552 16.6807 16.268 16.6324 16.3567 16.6324C17.3801 16.6404 18.4115 16.6565 19.4349 16.6324C20.7967 16.6001 21.7153 17.2609 22.3277 18.4212C22.642 19.0175 22.7709 19.6702 22.8918 20.3149C22.9401 20.5647 23.0449 20.613 23.2705 20.605C23.6895 20.5889 24.1166 20.5969 24.5356 20.605C24.858 20.613 25.0352 20.7742 25.0352 21.0401C25.0352 21.306 24.858 21.4994 24.5517 21.4994C23.2222 21.5075 21.9006 21.4994 20.5711 21.4994C20.4099 21.4994 20.281 21.4189 20.1601 21.3383C19.5477 20.9354 18.9353 20.5405 18.2664 20.0973C18.2664 20.4116 18.2664 20.6775 18.2664 20.9434C18.2584 21.3302 18.0972 21.4914 17.7185 21.4994C17.4768 21.5075 17.235 21.4914 16.9933 21.5075C16.679 21.5236 16.5178 21.6848 16.5017 21.999C16.4937 22.2166 16.5017 22.4422 16.5017 22.6598C16.5017 24.5293 16.5017 26.3987 16.5017 28.2682C16.5017 28.8323 16.6307 28.9612 17.1947 28.9612C20.974 28.9612 24.7532 28.9612 28.5324 28.9612C29.0804 28.9612 29.2093 28.8323 29.2093 28.2924C29.2093 26.2537 29.2093 24.215 29.2093 22.1683C29.2093 21.6284 29.0804 21.4994 28.5324 21.4994C27.92 21.4994 27.3076 21.4994 26.6952 21.4994C26.6066 21.4994 26.5099 21.5075 26.4212 21.4914C26.1714 21.443 26.0264 21.2899 26.0344 21.0321C26.0425 20.7742 26.1956 20.613 26.4535 20.613C27.2754 20.605 28.1054 20.5889 28.9273 20.6292C29.5316 20.6533 30.0474 21.2093 30.1038 21.8137C30.1199 22.0071 30.1118 22.1924 30.1118 22.3858C30.1118 24.3681 30.1118 26.3423 30.1118 28.3246C30.1118 29.3319 29.58 29.8718 28.5727 29.8718C27.1464 29.8798 25.7202 29.8798 24.2939 29.8718C24.0602 29.8718 23.9555 29.9362 23.9957 30.178C24.0038 30.2263 23.9957 30.2747 23.9957 30.3311C24.0521 31.1047 23.7379 31.6526 22.9804 31.9105C16.3567 31.9024 9.71683 31.9024 3.08503 31.9024ZM13.0368 30.9999C13.206 30.9999 13.3752 30.9999 13.5525 30.9999C16.542 30.9999 19.5235 30.9999 22.5131 30.9999C23.0127 30.9999 23.1013 30.9113 23.1013 30.3956C23.1013 29.8798 23.1013 29.8798 22.6017 29.8798C20.7725 29.8798 18.9433 29.8879 17.1141 29.8798C16.1633 29.8798 15.6234 29.3238 15.6153 28.381C15.6153 27.8009 15.5992 27.2126 15.6234 26.6324C15.6315 26.3423 15.575 26.2376 15.2527 26.2456C13.8023 26.2618 12.3599 26.2537 10.9094 26.2537C10.6032 26.2537 10.4098 26.0684 10.4098 25.8105C10.4098 25.5688 10.6032 25.3834 10.8852 25.3593C10.9658 25.3512 11.0464 25.3593 11.127 25.3593C12.5049 25.3593 13.8829 25.3512 15.2608 25.3673C15.5831 25.3754 15.6476 25.2706 15.6315 24.9805C15.6073 24.4568 15.6234 23.933 15.6234 23.4092C15.6234 23.0144 15.6234 23.0144 15.2366 23.0144C11.127 23.0144 7.00931 23.0144 2.89969 23.0144C2.81105 23.0144 2.71436 23.0144 2.62572 23.0224C2.19864 23.0627 1.94884 23.3206 1.94078 23.7476C1.93272 23.9894 1.94078 24.2311 1.94078 24.4729C1.94078 25.1336 2.17446 25.3593 2.83523 25.3593C4.75305 25.3593 6.67893 25.3593 8.59675 25.3593C8.71762 25.3593 8.8385 25.3593 8.95131 25.3915C9.16888 25.456 9.27363 25.6252 9.25752 25.8508C9.2414 26.0764 9.10441 26.2134 8.87879 26.2537C8.78209 26.2698 8.67733 26.2618 8.58064 26.2618C6.83203 26.2618 5.08343 26.2698 3.33483 26.2537C3.1092 26.2537 3.04474 26.3101 3.04474 26.5357C3.0528 27.8089 3.0528 29.0901 3.0528 30.3633C3.0528 30.9435 3.11726 31.008 3.68133 31.008C6.78369 30.9999 9.91022 30.9999 13.0368 30.9999ZM7.54114 9.52513C7.56532 10.065 7.46862 10.7016 7.6459 11.3221C8.23414 13.3769 9.54761 14.8193 11.4574 15.7299C12.2471 16.1086 13.077 16.2375 13.9473 15.9877C14.9304 15.7057 15.7684 15.19 16.5017 14.497C17.5573 13.4897 18.3551 12.3293 18.5485 10.8386C18.6291 10.202 18.5646 9.55736 18.5807 8.91272C18.5888 8.47758 18.5807 8.47758 18.1536 8.48564C16.3647 8.51787 14.5758 8.45341 12.8272 8.01021C11.957 7.79265 11.135 7.44615 10.297 7.13188C9.49926 6.83373 8.75792 6.9949 8.0488 7.3978C7.70231 7.59119 7.50085 7.87323 7.53309 8.30836C7.56532 8.69515 7.54114 9.06582 7.54114 9.52513ZM8.0488 17.5429C7.53309 17.5429 7.02543 17.551 6.50971 17.5429C5.81672 17.5268 5.29294 17.8169 4.88198 18.3568C4.63218 18.6791 4.44684 19.0337 4.35015 19.4285C4.15675 20.2182 3.99559 21.016 3.8022 21.8056C3.73773 22.0716 3.83443 22.0957 4.06006 22.0957C5.38964 22.0877 6.71116 22.0957 8.04075 22.0957C10.4501 22.0957 12.8595 22.0957 15.2769 22.0957C15.4784 22.0957 15.6234 22.0957 15.6234 21.8218C15.6234 21.4833 15.7926 21.2093 16.0344 20.9757C16.3406 20.6856 16.7032 20.5808 17.1141 20.605C17.3075 20.6211 17.3881 20.5647 17.372 20.3552C17.3559 20.0973 17.372 19.8314 17.3639 19.5736C17.3639 19.3238 17.4042 19.0901 17.646 18.9531C17.8958 18.8161 18.1053 18.9209 18.3148 19.0578C19.04 19.5333 19.7572 20.0006 20.4824 20.4761C20.563 20.5325 20.6436 20.605 20.7483 20.605C21.119 20.605 21.4897 20.605 21.8603 20.605C21.9812 20.605 22.0215 20.5566 21.9973 20.4358C21.8523 19.7347 21.7072 19.0417 21.2802 18.4374C20.9014 17.9055 20.4099 17.5429 19.725 17.5349C18.5807 17.5268 17.4365 17.5349 16.2922 17.5268C16.123 17.5268 16.0585 17.5671 16.0263 17.7524C15.9054 18.5744 15.5589 19.2915 14.8821 19.8072C13.9957 20.4841 12.9642 20.4197 11.9973 20.186C10.8208 19.9039 10.2809 18.9692 10.0714 17.8411C10.023 17.5752 9.93439 17.5187 9.69265 17.5268C9.15276 17.551 8.60481 17.5429 8.0488 17.5429ZM7.55726 6.64034C8.70957 5.98764 9.86187 5.92317 11.0464 6.45501C13.3671 7.4945 15.8329 7.66372 18.3309 7.59119C18.476 7.58314 18.5727 7.58314 18.5807 7.38974C18.6774 5.22212 17.6218 2.88528 15.019 2.15199C13.5847 1.74909 12.1826 1.83773 10.9255 2.69994C10.5146 2.98197 10.1036 3.21566 9.6443 3.40099C8.18579 3.96506 7.44445 5.12542 7.55726 6.64034ZM10.9255 16.5115C10.9417 16.9627 10.9094 17.3656 10.9819 17.7605C11.1834 18.8322 11.8603 19.3963 12.9401 19.3963C13.0609 19.3963 13.1818 19.3882 13.3027 19.3963C14.0601 19.4366 14.5597 19.0578 14.8982 18.4212C15.1721 17.9055 15.1883 17.3495 15.1963 16.7855C15.1963 16.5195 15.1319 16.5195 14.9143 16.6082C14.036 16.9869 13.1254 17.14 12.1826 16.9305C11.7636 16.8419 11.3607 16.6807 10.9255 16.5115ZM6.63864 10.9836C6.63864 10.4518 6.63864 9.97639 6.63864 9.4929C6.63864 8.93689 6.63058 8.92883 6.07457 8.98524C5.92953 9.00136 5.86506 9.05776 5.84895 9.20281C5.75225 9.9361 6.02623 10.5082 6.63864 10.9836ZM19.4832 10.9917C20.0312 10.5324 20.3535 10.0247 20.281 9.30756C20.2568 9.08194 20.2004 8.96913 19.9586 8.98524C19.8781 8.9933 19.7975 8.9933 19.7169 8.98524C19.5316 8.96107 19.4752 9.03359 19.4752 9.21893C19.4913 9.79105 19.4832 10.3632 19.4832 10.9917Z" fill="white" stroke="#E61B20" stroke-width="0.2"/>
<path d="M22.8515 22.8935C24.7532 22.8774 26.4132 23.6026 27.8395 24.908C28.1698 25.2142 28.1618 25.5285 27.8314 25.8427C25.0514 28.5261 20.5791 28.5261 17.7588 25.8508C17.4123 25.5204 17.4043 25.2223 17.7508 24.8999C19.177 23.5945 20.8451 22.8774 22.8515 22.8935ZM22.7951 23.8121C22.642 23.8121 22.497 23.8282 22.3439 23.8121C21.667 23.7638 21.3124 24.1586 21.0868 24.7227C20.8048 25.4157 21.0062 26.2295 21.5622 26.7291C21.6509 26.8097 21.7395 26.8822 21.8684 26.8983C22.368 26.9628 22.8676 26.9548 23.3672 26.9467C23.9232 26.9306 24.2133 26.6083 24.4309 26.1651C24.584 25.8589 24.6324 25.5365 24.6001 25.1981C24.5276 24.352 24.0119 23.8524 23.1738 23.8202C23.053 23.804 22.924 23.8121 22.7951 23.8121ZM25.3253 26.4229C25.9055 26.1651 26.389 25.8589 26.8403 25.5043C26.9692 25.3995 26.9853 25.3351 26.8483 25.2384C26.6308 25.0853 26.4132 24.9161 26.1876 24.771C25.9297 24.6018 25.6718 24.4245 25.3253 24.3359C25.5832 25.0369 25.5832 25.7058 25.3253 26.4229ZM20.2488 26.4068C19.9909 25.6977 20.007 25.0369 20.2488 24.3117C19.6363 24.5857 19.1448 24.908 18.6855 25.2787C18.5969 25.3512 18.613 25.3995 18.6935 25.464C19.1609 25.8347 19.6525 26.157 20.2488 26.4068Z" fill="white" stroke="#E61B20" stroke-width="0.2"/>
<path d="M13.0045 14.0457C12.7466 14.0457 12.4807 14.0538 12.2229 14.0457C11.9247 14.0377 11.7233 13.8523 11.7233 13.5945C11.7233 13.3366 11.9247 13.1513 12.2229 13.1432C12.7466 13.1351 13.2624 13.1351 13.7861 13.1432C14.0762 13.1432 14.2535 13.3205 14.2616 13.5783C14.2696 13.8443 14.0843 14.0377 13.7861 14.0457C13.5283 14.0538 13.2704 14.0457 13.0045 14.0457Z" fill="white" stroke="#E61B20" stroke-width="0.2"/>
<path d="M11.2237 9.9925C11.2237 10.484 11.0948 10.7016 10.7886 10.7097C10.4743 10.7177 10.3212 10.4921 10.3212 9.98444C10.3212 9.8958 10.3132 9.80717 10.3212 9.71853C10.3373 9.43649 10.5227 9.25922 10.7725 9.25922C11.0303 9.25922 11.2076 9.43649 11.2237 9.71853C11.2318 9.81522 11.2237 9.90386 11.2237 9.9925Z" fill="white" stroke="#E61B20" stroke-width="0.2"/>
<path d="M15.6314 9.97638C15.6314 10.0731 15.6395 10.1778 15.6314 10.2745C15.6153 10.5324 15.4622 10.6774 15.2124 10.7016C14.9868 10.7338 14.7612 10.5485 14.737 10.2987C14.7128 10.0892 14.7128 9.87969 14.737 9.67018C14.7612 9.41232 14.9546 9.25116 15.1963 9.25922C15.4461 9.26727 15.6073 9.43649 15.6234 9.70241C15.6395 9.79911 15.6314 9.88775 15.6314 9.97638Z" fill="white" stroke="#E61B20" stroke-width="0.2"/>
</svg>
