<svg width="31" height="31" viewBox="0 0 31 31" fill="none" xmlns="http://www.w3.org/2000/svg">
<path d="M7.91505 17.9947C4.1086 13.427 4.93333 7.08288 8.93011 3.5302C12.9269 0.104389 18.7634 0.16783 22.6333 3.65708C26.5667 7.27321 27.2645 13.4904 23.5849 17.9313C23.7118 17.9947 23.7753 17.9947 23.9021 17.9947C25.6151 17.9947 27.2645 17.9947 28.9774 17.9947C29.929 17.9947 30.5 18.5657 30.5 19.5173C30.5 22.6893 30.5 25.7979 30.5 28.97C30.5 29.9216 29.929 30.4926 28.9774 30.4926C27.4548 30.4926 25.9957 30.4926 24.4731 30.4926C24.2194 30.4926 23.9656 30.4291 23.9021 30.1119C23.8387 29.7947 24.029 29.5409 24.4731 29.5409C25.8688 29.5409 27.328 29.5409 28.7237 29.5409C28.7871 29.5409 28.8505 29.5409 28.914 29.5409C29.4215 29.5409 29.5484 29.4141 29.5484 28.9065C29.5484 25.7979 29.5484 22.6893 29.5484 19.5807C29.5484 19.0732 29.4215 18.9463 28.914 18.9463C24.7903 18.9463 20.6667 18.9463 16.543 18.9463C11.9118 18.9463 7.34409 18.9463 2.7129 18.9463C2.14194 18.9463 2.01505 19.0732 2.01505 19.6442C2.01505 22.6893 2.01505 25.7979 2.01505 28.8431C2.01505 29.4141 2.14194 29.5409 2.7129 29.5409C8.80323 29.5409 14.8935 29.5409 20.9839 29.5409C21.1108 29.5409 21.1742 29.5409 21.3011 29.5409C21.5548 29.6044 21.6817 29.7313 21.7452 29.985C21.7452 30.2388 21.5548 30.4291 21.3011 30.4926C21.2376 30.4926 21.1108 30.4926 21.0473 30.4926C14.8935 30.4926 8.80323 30.4926 2.64946 30.4926C1.57097 30.4926 1 29.9216 1 28.9065C1 25.7979 1 22.6893 1 19.5807C1 18.5657 1.57097 17.9947 2.58602 17.9947C4.23548 17.9947 5.88495 17.9947 7.59785 17.9947C7.66129 17.9947 7.78817 17.9947 7.91505 17.9947ZM15.7183 17.9947C17.8118 17.9947 19.8419 17.9947 21.9355 17.9947C22.1258 17.9947 22.2527 17.9313 22.3796 17.8044C24.6634 15.3936 25.5516 12.5388 24.8538 9.30331C23.4581 2.89579 16.0989 -0.149375 10.5796 3.5302C5.69462 6.70224 4.99677 13.7442 9.12043 17.8044C9.24731 17.9313 9.37419 17.9947 9.56452 17.9947C11.5946 17.9947 13.6882 17.9947 15.7183 17.9947Z" fill="white" stroke="white" stroke-width="0.3"/>
<path d="M23.6484 24.2119C23.6484 23.1334 23.6484 22.0549 23.6484 20.9764C23.6484 20.4689 23.7753 20.342 24.2828 20.342C25.2979 20.342 26.3764 20.342 27.3914 20.342C27.7721 20.342 28.0258 20.5323 28.0258 20.7861C28.0258 21.1033 27.8355 21.2936 27.3914 21.2936C26.5667 21.2936 25.6785 21.2936 24.8538 21.2936C24.6635 21.2936 24.6 21.3571 24.6 21.5474C24.6 22.1818 24.6 22.8797 24.6 23.5141C24.6 23.7044 24.6635 23.7678 24.8538 23.7678C25.742 23.7678 26.5667 23.7678 27.4549 23.7678C27.7086 23.7678 27.8989 23.8313 28.0258 24.1485C28.0893 24.4657 27.8989 24.7194 27.5183 24.7194C27.0742 24.7194 26.6301 24.7194 26.186 24.7194C25.742 24.7194 25.2979 24.7194 24.7903 24.7194C24.6 24.7194 24.5366 24.7829 24.5366 24.9732C24.5366 25.6076 24.5366 26.3055 24.5366 26.9399C24.5366 27.1302 24.6 27.1936 24.7903 27.1936C25.6785 27.1936 26.5032 27.1936 27.3914 27.1936C27.7721 27.1936 28.0258 27.384 28.0258 27.7012C28.0258 28.0184 27.7721 28.1453 27.3914 28.1453C26.3129 28.1453 25.2979 28.1453 24.2194 28.1453C23.7753 28.1453 23.585 27.9549 23.585 27.5108C23.6484 26.4323 23.6484 25.3539 23.6484 24.2119Z" fill="white" stroke="white" stroke-width="0.3"/>
<path d="M20.7936 28.1453C20.6667 28.1453 20.5398 28.1453 20.4129 28.1453C19.9054 28.1453 19.7785 28.0184 19.7151 27.5108C19.3344 25.4173 19.0172 23.2603 18.6366 21.1668V21.1033C18.5731 20.6592 18.7 20.4689 19.0172 20.4055C19.3344 20.342 19.5248 20.5958 19.5882 20.9764C19.9054 23.0065 20.2226 24.9732 20.6033 27.0033C20.6033 27.1302 20.6033 27.2571 20.7936 27.2571C20.9839 27.2571 20.9839 27.1302 21.0473 27.0033C21.3645 25.0366 21.6818 23.0065 22.0624 21.0399C22.0624 20.913 22.0624 20.7861 22.1893 20.6592C22.3162 20.4689 22.5065 20.4055 22.6968 20.4689C22.9506 20.5323 23.0774 20.7227 23.014 20.9764C22.9506 21.4205 22.8871 21.8646 22.8237 22.3721C22.5065 24.085 22.2527 25.8614 21.9355 27.5743C21.8721 28.1453 21.7452 28.2721 21.1742 28.2721C21.0473 28.1453 20.9205 28.1453 20.7936 28.1453Z" fill="white" stroke="white" stroke-width="0.3"/>
<path d="M16.2258 24.2754C16.2258 25.1635 16.2258 26.0517 16.2258 26.9399C16.2258 27.1936 16.2892 27.1936 16.4795 27.1936C16.7967 27.1936 17.1139 27.1936 17.3677 27.1936C17.6849 27.1936 17.8752 27.384 17.8752 27.7012C17.8752 27.9549 17.6849 28.1453 17.3677 28.1453C16.2258 28.1453 15.1473 28.1453 14.0053 28.1453C13.6881 28.1453 13.4978 27.9549 13.4978 27.7012C13.4978 27.4474 13.6881 27.1936 14.0053 27.1936C14.3225 27.1936 14.7032 27.1936 15.0204 27.1936C15.1473 27.1936 15.2107 27.1302 15.2107 27.0033C15.2107 25.1635 15.2107 23.3237 15.2107 21.484C15.2107 21.3571 15.1473 21.2936 15.0204 21.2936C14.7032 21.2936 14.386 21.2936 14.0688 21.2936C13.7516 21.2936 13.4978 21.1033 13.4978 20.7861C13.4978 20.5323 13.6881 20.342 14.0688 20.342C15.1473 20.342 16.2892 20.342 17.3677 20.342C17.6849 20.342 17.8752 20.5323 17.9387 20.7861C17.9387 21.1033 17.7483 21.2936 17.3677 21.2936C17.0505 21.2936 16.7967 21.2936 16.4795 21.2936C16.2892 21.2936 16.1623 21.3571 16.2258 21.5474C16.2258 22.499 16.2258 23.3872 16.2258 24.2754Z" fill="white" stroke="white" stroke-width="0.3"/>
<path d="M3.34729 24.2754C3.34729 22.9431 4.2989 21.9915 5.56772 21.9915C6.83654 21.9915 7.72471 23.0065 7.72471 24.2754C7.72471 25.5442 6.7731 26.5592 5.50428 26.5592C4.36234 26.5592 3.34729 25.5442 3.34729 24.2754ZM4.2989 24.2119C4.2989 24.9732 4.80643 25.5442 5.50428 25.5442C6.20213 25.5442 6.7731 24.9732 6.7731 24.2119C6.7731 23.4506 6.26557 22.8797 5.50428 22.8797C4.86987 22.8797 4.2989 23.4506 4.2989 24.2119Z" fill="white" stroke="white" stroke-width="0.3"/>
<path d="M8.42261 24.2119C8.42261 23.1334 8.42261 22.1184 8.42261 21.0399C8.42261 20.913 8.42261 20.7861 8.42261 20.6592C8.48605 20.4055 8.61293 20.2786 8.86669 20.2786C9.05702 20.2786 9.24734 20.4055 9.31078 20.5958C9.37422 20.7227 9.37422 20.8495 9.37422 20.9764C9.37422 22.8797 9.37422 24.7829 9.37422 26.6861C9.37422 27.1302 9.31078 27.0668 9.75487 27.0668C10.5796 27.0668 11.4043 27.0668 12.1656 27.0668C12.5463 27.0668 12.7366 27.2571 12.7366 27.5108C12.7366 27.828 12.5463 28.0184 12.1656 28.0184C11.0871 28.0184 10.0086 28.0184 8.99358 28.0184C8.54949 28.0184 8.42261 27.828 8.42261 27.4474C8.42261 26.4323 8.42261 25.2904 8.42261 24.2119Z" fill="white" stroke="white" stroke-width="0.3"/>
<path d="M15.7183 3.33987C20.2861 3.33987 23.9022 7.20977 23.585 11.7775C23.4581 13.4904 22.8237 14.9496 21.7452 16.2818C21.4914 16.5356 21.2377 16.599 21.0473 16.4087C20.7936 16.2184 20.7936 15.9646 21.0473 15.6474C22.1893 14.2517 22.6968 12.7291 22.6334 10.9528C22.5699 7.78073 20.1592 4.9259 17.0506 4.35493C14.7667 3.97428 12.7366 4.48181 11.0237 6.00439C10.7699 6.25815 10.4527 6.25815 10.2624 6.06783C10.0721 5.87751 10.1355 5.5603 10.3893 5.30654C11.8484 4.10116 13.7516 3.33987 15.7183 3.33987Z" fill="white" stroke="white" stroke-width="0.3"/>
<path d="M12.356 11.27C12.356 10.1915 12.356 9.17643 12.356 8.09794C12.356 7.46353 12.6732 7.27321 13.1807 7.52697C15.3377 8.60546 17.4312 9.68396 19.5882 10.699C19.7785 10.8259 20.0323 10.9528 20.0323 11.2065C20.0323 11.4603 19.842 11.5872 19.5882 11.7141C17.4312 12.7926 15.3377 13.8711 13.1807 14.8861C12.6732 15.1399 12.356 14.9495 12.356 14.3786C12.356 13.3635 12.356 12.3485 12.356 11.27ZM18.5097 11.27C16.7968 10.4452 15.1474 9.62052 13.4979 8.79579C13.2441 8.6689 13.3076 8.85923 13.3076 8.98611C13.3076 10.5087 13.3076 12.0313 13.3076 13.5538C13.3076 13.8711 13.371 13.8076 13.6248 13.7442C14.957 13.0463 16.3527 12.4119 17.685 11.7141C17.9388 11.5872 18.1925 11.3969 18.5097 11.27Z" fill="white" stroke="white" stroke-width="0.3"/>
<path d="M7.85167 11.3969C7.85167 10.0646 8.10543 8.92267 8.61296 7.84417C8.80328 7.46353 9.05705 7.33665 9.31081 7.46353C9.62802 7.59041 9.62801 7.84417 9.50113 8.22482C8.3592 10.8893 8.61296 13.3635 10.3893 15.6474C10.6431 15.9646 10.6431 16.1549 10.4527 16.4087C10.2624 16.599 9.94522 16.599 9.69146 16.3452C8.86672 15.3302 8.29576 14.2517 8.04199 12.9829C7.85167 12.4119 7.78823 11.8409 7.85167 11.3969Z" fill="white" stroke="white" stroke-width="0.3"/>
</svg>
