<svg width="32" height="32" viewBox="0 0 32 32" fill="none" xmlns="http://www.w3.org/2000/svg">
<path d="M5.08813 26.6728C5.26812 26.4928 5.44812 26.2964 5.66083 26.0673C7.57527 28.0472 9.73516 29.4217 12.2714 30.158C14.1531 30.698 16.0675 30.9107 18.0147 30.5998C18.3092 30.5507 18.6692 30.3053 18.8001 30.0598C19.1601 29.3235 19.4874 28.5708 19.6673 27.7854C20.06 26.1491 18.8165 24.971 17.1638 25.2656C15.953 25.4783 14.7422 25.5928 13.5149 25.691C12.615 25.7564 11.8296 25.4946 11.4205 24.5947C10.9951 23.662 11.0442 22.7457 11.6169 21.8621C11.6987 21.7476 11.7805 21.6494 11.8787 21.5512C12.8768 20.4222 12.8768 20.4222 12.1078 19.195C11.7805 18.6714 11.9441 18.2459 12.3696 17.9023C12.6314 17.706 12.9423 17.5914 13.0895 17.5096C12.6314 16.9696 11.7969 16.4133 11.7969 15.8733C11.7969 15.317 12.6641 14.777 13.1222 14.2534C12.7459 13.9753 12.255 13.648 11.8296 13.2389C10.8642 12.339 10.766 11.3081 11.5841 10.2609C11.9605 9.77003 12.4677 9.37733 12.9423 8.96826C13.3513 8.60828 13.7931 8.28102 14.2513 7.9865C16.3948 6.53021 16.9348 4.4685 16.5421 2.04682C14.4967 1.62139 9.50608 2.58679 5.70992 6.49748C5.51357 6.31749 5.31721 6.15387 5.12086 5.97388C7.96798 2.43952 14.1858 -0.194878 20.4037 1.55594C26.9324 3.38856 31.3831 9.0828 31.6285 15.9388C31.8739 22.4512 27.7342 28.489 21.4509 30.7634C15.3149 32.9888 8.63885 30.8289 5.08813 26.6728ZM12.8604 18.5896C14.0549 20.1767 14.0222 20.6022 12.7295 21.9766C12.6804 22.0421 12.615 22.0912 12.5659 22.1566C12.0423 22.7457 11.9114 23.4002 12.2223 24.1365C12.5168 24.8401 13.155 24.8729 13.744 24.8074C14.9549 24.6929 16.1657 24.4965 17.3766 24.3165C19.2255 24.0547 20.9273 25.7073 20.6164 27.5563C20.4691 28.4563 20.1419 29.3235 19.9128 30.1907C25.6397 29.7817 31.0722 22.4839 30.6795 15.5134C30.1886 6.85746 22.9235 2.17772 17.5729 2.06318C17.5729 2.32498 17.5565 2.60315 17.5729 2.86496C17.7693 5.36846 16.8202 7.33198 14.7749 8.77191C14.2676 9.13189 13.7604 9.50823 13.2695 9.90094C12.9423 10.1791 12.5986 10.4736 12.3368 10.8173C11.8132 11.5045 11.8459 12.0117 12.4841 12.6008C12.8114 12.9117 13.2204 13.1571 13.6131 13.4026C14.464 13.9098 14.5131 14.6134 13.7113 15.2025C13.384 15.4479 13.0241 15.6606 12.5332 15.9715C13.2695 16.3151 13.8749 16.5606 14.4313 16.8878C14.6767 17.0351 14.9221 17.346 14.9385 17.6078C14.9549 17.7714 14.5785 18.0332 14.3331 18.1314C13.9077 18.3114 13.4331 18.4096 12.8604 18.5896Z" fill="white" stroke="white" stroke-width="0.5"/>
<path d="M3.63187 23.2529C3.38643 23.4166 3.17372 23.5311 2.97736 23.662C0.473862 20.0131 0.228421 13.3207 2.92827 8.98462C3.15735 9.11552 3.37007 9.23006 3.64824 9.37733C2.51921 11.6027 1.89742 13.8934 1.89742 16.3315C1.89742 18.7859 2.53557 21.0603 3.63187 23.2529Z" fill="white" stroke="white" stroke-width="0.5"/>
<path d="M4.71179 10.1464C5.02268 10.3264 5.23539 10.4409 5.51356 10.5882C3.61548 14.3843 3.56639 18.1968 5.51356 22.0748C5.28448 22.2221 5.03904 22.353 4.72815 22.5493C2.63372 18.3768 2.63372 14.3189 4.71179 10.1464Z" fill="white" stroke="white" stroke-width="0.5"/>
<path d="M6.70813 10.8991C6.96993 11.0463 7.19901 11.1936 7.44445 11.3409C5.77545 14.6789 5.75909 17.9841 7.44445 21.3221C7.21537 21.4694 6.98629 21.6003 6.77358 21.7476C4.92459 19.195 4.69551 14.1716 6.70813 10.8991Z" fill="white" stroke="white" stroke-width="0.5"/>
<path d="M9.19517 19.7186C8.98246 19.8495 8.75338 19.964 8.45885 20.1276C7.18256 17.575 7.16619 15.1043 8.44249 12.5353C8.73702 12.6826 8.98246 12.8135 9.21154 12.9444C8.14796 15.7261 8.14796 16.5769 9.19517 19.7186Z" fill="white" stroke="white" stroke-width="0.5"/>
</svg>
