<svg width="32" height="29" viewBox="0 0 32 29" fill="none" xmlns="http://www.w3.org/2000/svg">
<path d="M31.7 14.2477C31.5558 14.472 31.3956 14.6642 31.0913 14.6642C30.7549 14.6562 30.4986 14.3919 30.4986 14.0074C30.4905 13.0303 30.4986 12.0531 30.4986 11.068C30.4986 9.49013 30.4986 7.91228 30.4986 6.33443C30.4986 5.86989 30.843 5.57354 31.2514 5.67766C31.4757 5.73373 31.5878 5.90993 31.7 6.08614C31.7 8.80933 31.7 11.5325 31.7 14.2477Z" fill="white" stroke="white" stroke-width="0.2"/>
<path d="M19.8221 4.42017C19.5578 3.85151 19.2054 3.419 18.7729 3.05858C18.6928 2.9945 18.6127 2.93844 18.5406 2.87436C18.2843 2.63408 18.2603 2.29768 18.4685 2.04138C18.6688 1.8011 19.0052 1.75305 19.2775 1.94527C19.5418 2.12148 19.7821 2.33773 19.9983 2.57C20.8954 3.53113 21.376 4.66847 21.376 5.98201C21.392 9.1297 21.392 12.2774 21.376 15.4251C21.3599 18.0682 19.2695 20.2227 16.6104 20.3829C13.9993 20.5351 11.7006 18.6208 11.3562 16.0098C11.3322 15.8095 11.3081 15.6093 11.3081 15.4171C11.3081 12.2774 11.2921 9.14572 11.3081 6.00603C11.3162 4.33207 12.037 2.98649 13.3666 1.9693C13.5988 1.79309 13.8471 1.76106 14.0954 1.91323C14.3197 2.04939 14.3998 2.27366 14.3597 2.53797C14.3277 2.7382 14.1835 2.86635 14.0313 2.97848C13.5908 3.30687 13.2464 3.71535 12.9821 4.19591C12.894 4.3561 12.87 4.4442 13.1103 4.42818C13.3826 4.41216 13.6469 4.42017 13.9192 4.42818C14.3277 4.43619 14.6 4.66847 14.608 5.02088C14.616 5.3813 14.3517 5.62158 13.9352 5.62158C13.5588 5.62959 13.1743 5.6376 12.7979 5.62158C12.5656 5.61357 12.5015 5.70168 12.5096 5.90992C12.5256 6.14219 12.5256 6.36646 12.5096 6.59873C12.4935 6.79896 12.5816 6.831 12.7498 6.82299C13.1263 6.81498 13.5107 6.81498 13.8872 6.82299C14.3277 6.82299 14.6 7.05526 14.608 7.41569C14.616 7.78412 14.3437 8.01639 13.9112 8.0244C13.5348 8.0244 13.1503 8.03241 12.7739 8.0244C12.5896 8.01639 12.4935 8.05644 12.5096 8.26468C12.5336 8.56904 12.3894 8.96951 12.5656 9.16174C12.7418 9.35396 13.1503 9.20979 13.4547 9.22581C13.6469 9.23382 13.8311 9.2178 14.0233 9.23382C14.3677 9.25785 14.608 9.51415 14.608 9.83453C14.608 10.1629 14.3677 10.4112 14.0153 10.4272C13.5828 10.4432 13.1583 10.4352 12.7258 10.4272C12.5496 10.4272 12.5015 10.4833 12.5096 10.6515C12.5176 10.8998 12.5256 11.1481 12.5096 11.3964C12.5015 11.5806 12.5656 11.6286 12.7418 11.6286C15.1527 11.6206 17.5555 11.6206 19.9663 11.6286C20.1345 11.6286 20.1986 11.5886 20.1906 11.4124C20.1745 11.1721 20.1745 10.9318 20.1906 10.6915C20.2066 10.4833 20.1425 10.4112 19.9263 10.4192C19.5738 10.4352 19.2294 10.4272 18.877 10.4272C18.3644 10.4272 18.0841 10.211 18.0921 9.81851C18.1001 9.44206 18.3804 9.22581 18.869 9.22581C19.2294 9.22581 19.5899 9.2178 19.9503 9.22581C20.1265 9.23382 20.2066 9.19377 20.1906 9.00155C20.1745 8.75326 20.1745 8.50497 20.1906 8.25667C20.2066 8.06445 20.1185 8.0244 19.9503 8.0244C19.5498 8.03241 19.1493 8.03241 18.7489 8.0244C18.3564 8.01639 18.0921 7.78412 18.0921 7.43972C18.0841 7.0873 18.3564 6.83901 18.7649 6.831C19.1654 6.82299 19.5658 6.82299 19.9663 6.831C20.1585 6.83901 20.2066 6.77494 20.1986 6.59072C20.1826 6.37447 20.1826 6.1502 20.1986 5.93395C20.2226 5.67765 20.1105 5.61357 19.8702 5.62158C19.5018 5.6376 19.1333 5.62959 18.7649 5.62158C18.3724 5.61357 18.1081 5.3813 18.1081 5.0369C18.1001 4.68448 18.3724 4.42818 18.7729 4.42818C19.0933 4.42017 19.4377 4.42017 19.8221 4.42017ZM16.3701 12.814C15.1687 12.814 13.9753 12.814 12.7739 12.814C12.6697 12.814 12.5096 12.7499 12.5176 12.9582C12.5416 13.9834 12.4295 15.0166 12.5816 16.0418C12.854 17.8359 14.5279 19.2055 16.3781 19.1895C18.2363 19.1735 19.8702 17.7879 20.1265 15.9937C20.2626 15.0326 20.1505 14.0555 20.1906 13.0943C20.1986 12.8621 20.1185 12.814 19.9022 12.814C18.7248 12.822 17.5475 12.814 16.3701 12.814Z" fill="white" stroke="white" stroke-width="0.2"/>
<path d="M16.362 28.4564C15.0004 28.4564 13.6469 28.4564 12.2853 28.4564C11.6926 28.4564 11.4683 28.2161 11.5083 27.6314C11.6205 26.1336 12.7418 24.9002 14.2315 24.6759C14.4798 24.6359 14.5759 24.5638 14.5679 24.2915C14.5439 23.7949 14.5519 23.2903 14.5679 22.7937C14.5679 22.6255 14.5119 22.5615 14.3517 22.5054C11.3882 21.5523 9.5941 19.5499 9.01742 16.4823C8.95335 16.1379 8.92932 15.7935 8.92932 15.4411C8.93733 15.0246 9.16159 14.7683 9.53003 14.7683C9.89045 14.7683 10.1147 15.0246 10.1307 15.4411C10.2188 17.7638 11.244 19.5659 13.2464 20.7433C17.0989 23.018 22.0327 20.5271 22.5533 16.0819C22.5773 15.8576 22.5934 15.6253 22.6014 15.393C22.6254 15.0006 22.8657 14.7523 23.2181 14.7603C23.5705 14.7683 23.8188 15.0246 23.8028 15.4171C23.6986 18.3645 22.337 20.5351 19.766 21.9608C19.3495 22.193 18.901 22.3692 18.4365 22.4894C18.2362 22.5374 18.1642 22.6175 18.1722 22.8338C18.1882 23.3304 18.1882 23.8349 18.1722 24.3315C18.1642 24.5558 18.2362 24.6279 18.4605 24.6599C19.8221 24.8762 20.8393 25.8133 21.1517 27.1348C21.1997 27.3351 21.2237 27.5513 21.2318 27.7596C21.2478 28.2001 21.0075 28.4484 20.559 28.4484C19.1333 28.4564 17.7477 28.4564 16.362 28.4564ZM12.8299 27.2389C12.8459 27.247 12.8699 27.255 12.886 27.255C15.1606 27.255 17.4353 27.255 19.71 27.263C19.9022 27.263 19.9022 27.1989 19.8381 27.0547C19.4937 26.3259 18.925 25.8693 18.1241 25.8373C16.9467 25.7892 15.7693 25.8053 14.592 25.8293C13.759 25.8453 12.95 26.5261 12.8299 27.2389ZM16.9467 23.7629C16.9467 23.4905 16.9387 23.2743 16.9467 23.05C16.9547 22.8658 16.9147 22.7777 16.7064 22.7857C16.4662 22.8017 16.2259 22.8017 15.9856 22.7857C15.7774 22.7697 15.7373 22.8578 15.7373 23.042C15.7453 23.4585 15.7533 23.883 15.7373 24.2995C15.7293 24.5398 15.7854 24.6439 16.0417 24.6119C16.33 24.5798 16.7145 24.7 16.8827 24.5558C17.0829 24.3956 16.9227 24.0031 16.9467 23.7629Z" fill="white" stroke="white" stroke-width="0.2"/>
<path d="M3.76323 10.1389C3.76323 7.82417 3.76323 5.50144 3.76323 3.18673C3.76323 3.09061 3.75522 2.98649 3.77124 2.89038C3.81129 2.59403 4.05958 2.38579 4.34792 2.37778C4.65228 2.36977 4.90858 2.58602 4.95663 2.89038C4.97265 2.98649 4.96464 3.09061 4.96464 3.18673C4.96464 7.83218 4.96464 12.4776 4.96464 17.1231C4.96464 17.1551 4.96464 17.1791 4.96464 17.2112C4.96464 17.6677 4.73237 17.9561 4.36394 17.9561C4.00351 17.9561 3.76323 17.6677 3.76323 17.2112C3.76323 14.8564 3.76323 12.5017 3.76323 10.1389Z" fill="white" stroke="white" stroke-width="0.2"/>
<path d="M27.7433 10.1709C27.7433 7.84019 27.7433 5.51746 27.7433 3.18673C27.7433 3.09061 27.7353 2.98649 27.7513 2.89038C27.7914 2.59403 28.0397 2.38579 28.328 2.37778C28.6324 2.36977 28.8887 2.58602 28.9367 2.89038C28.9528 2.98649 28.9447 3.09061 28.9447 3.18673C28.9447 7.84019 28.9447 12.4936 28.9447 17.1551C28.9447 17.6677 28.7285 17.9561 28.344 17.9561C27.9676 17.9561 27.7433 17.6677 27.7433 17.1551C27.7433 14.8244 27.7433 12.5017 27.7433 10.1709Z" fill="white" stroke="white" stroke-width="0.2"/>
<path d="M2.20141 10.1709C2.20141 11.4364 2.20141 12.7099 2.20141 13.9754C2.20141 14.488 1.79293 14.7923 1.37644 14.6081C1.08009 14.488 1 14.2397 1 13.9273C1.00801 12.1012 1 10.275 1 8.4409C1 7.76811 1 7.10333 1 6.43054C1 5.92595 1.20824 5.66164 1.5927 5.66164C1.98516 5.66164 2.20141 5.91794 2.20141 6.42253C2.20141 7.67199 2.20141 8.92146 2.20141 10.1709Z" fill="white" stroke="white" stroke-width="0.2"/>
<path d="M7.71991 10.1389C7.71991 11.4204 7.71991 12.6939 7.71991 13.9754C7.71991 14.4079 7.43958 14.6962 7.07115 14.6642C6.76679 14.6322 6.53452 14.3919 6.52651 14.0555C6.5185 13.655 6.52651 13.2545 6.52651 12.8541C6.52651 10.6996 6.52651 8.53701 6.52651 6.38249C6.52651 5.99003 6.69471 5.74174 6.99906 5.67766C7.39953 5.59757 7.71991 5.8779 7.72792 6.33443C7.71991 7.59991 7.71991 8.87341 7.71991 10.1389Z" fill="white" stroke="white" stroke-width="0.2"/>
<path d="M26.1815 10.1709C26.1815 11.4524 26.1815 12.7259 26.1815 14.0074C26.1815 14.3999 25.9332 14.6562 25.5888 14.6642C25.2364 14.6722 24.9881 14.3919 24.9801 13.9914C24.9801 13.9193 24.9801 13.8553 24.9801 13.7832C24.9801 12.1813 24.9801 10.5874 24.9801 8.98554C24.9801 8.14455 24.9801 7.30357 24.9801 6.47059C24.9801 5.94197 25.1803 5.67766 25.5728 5.66965C25.9733 5.66164 26.1815 5.93396 26.1815 6.45457C26.1815 7.69603 26.1815 8.92947 26.1815 10.1709Z" fill="white" stroke="white" stroke-width="0.2"/>
<path d="M16.346 2.19357C16.0256 2.18556 15.7613 1.92125 15.7533 1.60087C15.7533 1.27249 16.0336 0.992158 16.362 1.00017C16.6984 1.00818 16.9627 1.28851 16.9467 1.6249C16.9387 1.94528 16.6664 2.20158 16.346 2.19357Z" fill="white" stroke="white" stroke-width="0.2"/>
<path d="M16.9468 15.9697C16.9548 16.2981 16.6664 16.5865 16.3461 16.5784C16.0337 16.5784 15.7614 16.3061 15.7534 15.9857C15.7453 15.6654 16.0016 15.3931 16.33 15.385C16.6664 15.369 16.9387 15.6333 16.9468 15.9697Z" fill="white" stroke="white" stroke-width="0.2"/>
</svg>
