<svg width="27" height="27" viewBox="0 0 27 27" fill="none" xmlns="http://www.w3.org/2000/svg">
<path d="M11.349 6.12032C11.1731 5.97375 10.9874 5.83695 10.8213 5.67083C9.3947 4.25397 7.97784 2.82734 6.55121 1.41048C6.28738 1.15642 6.1799 0.863281 6.29715 0.52128C6.39487 0.237908 6.61961 0.062022 6.91275 0.0131648C7.23521 -0.0356925 7.46973 0.120651 7.6847 0.335622C8.95499 1.61568 10.235 2.88597 11.5151 4.16603C11.9939 4.64483 12.4922 5.11386 12.9613 5.62197C13.1958 5.87603 13.313 5.89557 13.5671 5.63175C15.2869 3.88266 17.0262 2.16288 18.7557 0.423566C18.8535 0.325851 18.9414 0.228137 19.0489 0.149965C19.3616 -0.0747782 19.7817 -0.0454639 20.0553 0.228137C20.3289 0.501737 20.368 0.912138 20.1335 1.2346C20.0456 1.35185 19.9381 1.44957 19.8404 1.55705C18.3942 3.00323 16.948 4.4494 15.5019 5.90535C15.4139 5.99329 15.2869 6.06169 15.2576 6.21803C15.3846 6.2962 15.5214 6.25712 15.6484 6.25712C17.9056 6.25712 20.1628 6.25712 22.4103 6.25712C24.8922 6.25712 26.5338 7.90849 26.5338 10.3807C26.5338 14.387 26.5338 18.403 26.5338 22.4093C26.5338 24.8717 24.8727 26.5329 22.4005 26.5329C16.3031 26.5329 10.2057 26.5329 4.11812 26.5329C1.67526 26.5329 0.00434286 24.8619 0.00434286 22.4191C0.00434286 18.3835 -0.00542858 14.3479 0.00434286 10.3123C0.00434286 8.24072 1.27463 6.66752 3.24846 6.30598C3.54161 6.24735 3.85429 6.24735 4.15721 6.24735C6.40464 6.24735 8.6423 6.24735 10.8897 6.24735C11.0168 6.24735 11.1536 6.24735 11.2806 6.24735C11.3001 6.20826 11.3197 6.1594 11.349 6.12032ZM18.7167 16.3608C18.7167 13.6541 18.7069 10.9474 18.7264 8.24072C18.7264 7.90849 18.6678 7.79123 18.2965 7.79123C13.5671 7.80101 8.83773 7.80101 4.10835 7.80101C2.53515 7.80101 1.56777 8.74884 1.56777 10.3123C1.56777 14.3576 1.56777 18.403 1.56777 22.4582C1.56777 24.0021 2.53515 24.9694 4.07903 24.9694C8.83773 24.9694 13.5867 24.9694 18.3453 24.9792C18.658 24.9792 18.7264 24.8815 18.7264 24.5884C18.7167 21.8426 18.7167 19.1066 18.7167 16.3608ZM20.2899 16.3901C20.2899 19.1359 20.2899 21.8719 20.2801 24.6177C20.2801 24.901 20.3485 24.9988 20.6416 24.989C21.2181 24.9694 21.7849 24.9792 22.3614 24.9792C24.003 24.9792 24.9606 24.0216 24.9704 22.3605C24.9704 19.8785 24.9704 17.3868 24.9704 14.9048C24.9704 13.361 24.9802 11.8073 24.9704 10.2634C24.9606 8.79769 23.9639 7.81078 22.508 7.81078C21.8826 7.81078 21.267 7.83032 20.6416 7.80101C20.3485 7.79124 20.2801 7.88895 20.2801 8.17232C20.2996 10.9083 20.2899 13.6443 20.2899 16.3901Z" fill="white"/>
<path d="M5.46662 16.3608C5.46662 15.2664 5.46662 14.1622 5.46662 13.0678C5.47639 11.7584 6.62943 11.0256 7.79223 11.6021C10.0201 12.7063 12.2382 13.8202 14.4564 14.9244C15.0622 15.2273 15.4237 15.6963 15.4237 16.3901C15.414 17.0741 15.0622 17.5334 14.4661 17.8265C12.248 18.9307 10.0299 20.0544 7.802 21.1488C6.6392 21.7253 5.47639 20.9827 5.46662 19.6831C5.45685 18.5887 5.46662 17.4747 5.46662 16.3608ZM13.8603 16.3901C13.2838 16.097 12.7757 15.8429 12.2675 15.5888C10.6259 14.768 8.98434 13.9472 7.34274 13.1264C7.23525 13.0678 7.03005 12.8333 7.03005 13.2242C7.03005 15.3348 7.03005 17.4356 7.03005 19.5463C7.03005 19.7808 7.10823 19.7906 7.28411 19.6929C7.54794 19.5463 7.83131 19.4193 8.09514 19.2825C9.9908 18.3248 11.8865 17.377 13.8603 16.3901Z" fill="white"/>
<path d="M23.3972 11.7096C23.3972 12.1298 23.0649 12.4718 22.6448 12.4815C22.2148 12.4913 21.8533 12.1298 21.8533 11.6998C21.8533 11.2796 22.1953 10.9376 22.6154 10.9279C23.0552 10.9279 23.3972 11.2601 23.3972 11.7096Z" fill="white"/>
<path d="M23.3971 16.3803C23.4069 16.82 23.0551 17.1718 22.6154 17.1718C22.205 17.1718 21.8532 16.82 21.8435 16.3999C21.8337 15.9797 22.1757 15.6279 22.5959 15.6182C23.0454 15.5986 23.3874 15.9308 23.3971 16.3803Z" fill="white"/>
<path d="M23.3972 21.0609C23.3972 21.481 23.0747 21.8328 22.6448 21.8426C22.2148 21.8523 21.8435 21.5006 21.8435 21.0706C21.8435 20.6505 22.1757 20.3084 22.5959 20.2987C23.0552 20.2889 23.3972 20.6114 23.3972 21.0609Z" fill="white"/>
</svg>
